<?xml version="1.0" encoding="utf-8"?>
<!DOCTYPE svg PUBLIC "-//W3C//DTD SVG 1.0//EN" "http://www.w3.org/TR/2001/REC-SVG-20010904/DTD/svg10.dtd">
<svg version="1.0" xmlns="http://www.w3.org/2000/svg" width="1080px" height="1080px" viewBox="0 0 1080 1080" preserveAspectRatio="xMidYMid meet">
 <g fill="#000000">
  <path d="M536.5 921.9 c-4.9 -0.4 -10.8 -1.1 -13 -1.7 -2.2 -0.6 -5.3 -1.3 -7 -1.5 -10.8 -1.7 -27.9 -9.2 -41.7 -18.4 -11.3 -7.4 -29.5 -26.4 -35.2 -36.8 -0.9 -1.6 -2.8 -4.8 -4.1 -7 -1.4 -2.2 -2.9 -4.9 -3.4 -6 -3.3 -7.5 -4.5 -11 -5.6 -16.6 -0.7 -3.5 -1.8 -8.2 -2.4 -10.4 -1.1 -4.3 -1.4 -13.7 -0.5 -17 0.5 -1.9 1.3 -2 26.2 -2 47.9 0 72.6 -1 82.7 -3.4 12.4 -3 22.2 -6 27.1 -8.2 2.2 -1.1 4.4 -1.9 4.8 -1.9 0.8 0 10.9 -4.9 15.2 -7.3 1.7 -1 14.9 -9.8 17.9 -11.9 0.6 -0.4 4.4 -3.7 8.5 -7.3 10.9 -9.6 22.2 -23.3 27.3 -33.2 1 -2 2.5 -4.2 3.3 -5 0.8 -0.8 1.4 -2.3 1.4 -3.2 0 -1 0.7 -2.4 1.5 -3.1 0.8 -0.7 1.5 -1.8 1.5 -2.4 0 -0.7 1.1 -3.4 2.3 -6.2 4.1 -8.5 6.6 -15.7 7.7 -21.9 0.5 -3.3 1.7 -8.5 2.5 -11.5 1.3 -4.8 1.5 -33.2 1.5 -213.2 0 -141.1 0.3 -207.9 1 -208.3 1.6 -1 185 -0.5 189 0.4 1.9 0.5 4.8 1.4 6.3 2 1.6 0.6 4.1 1.1 5.7 1.1 5.5 0 30.2 10.6 36 15.5 0.8 0.7 2.9 1.9 4.5 2.8 6.8 3.5 24 20.8 30.8 31.1 6.1 9.1 9.7 15.8 9.7 17.9 0 0.8 0.8 2.5 1.8 3.8 2.6 3.4 6.2 15.1 7.3 23.9 0.6 4.4 1.2 94 1.6 219.5 0.6 235.7 0.4 247.4 -4.6 261.8 -3.7 10.6 -10.5 25 -14.7 31 -1.9 2.6 -3.4 5 -3.4 5.3 0 1.2 -7.2 9.6 -14 16.5 -6.6 6.6 -17.6 14.4 -24.2 17.2 -1.9 0.8 -3.9 2 -4.2 2.6 -0.4 0.6 -1.4 1.1 -2.3 1.1 -0.9 0 -3.4 0.8 -5.7 1.9 -8.1 3.7 -16.2 6.5 -20.6 7.2 -2.5 0.4 -7.3 1.4 -10.8 2.3 -5.6 1.4 -21.7 1.6 -152.5 1.4 -80.4 -0.1 -150.2 -0.5 -155.2 -0.9z"/>
  <path d="M245.5 799 c-1.6 -0.5 -5.7 -1.5 -9 -2.3 -3.3 -0.8 -7.7 -2.2 -9.7 -3.1 -2.1 -0.9 -4.8 -1.6 -6 -1.6 -1.3 0 -3.4 -0.9 -4.8 -2 -1.4 -1.1 -3.2 -2 -4.1 -2 -0.9 0 -2.8 -0.9 -4.2 -2 -1.4 -1.1 -2.8 -2 -3.2 -2 -0.4 0 -4.7 -2.5 -9.4 -5.6 -9 -5.9 -27.4 -23.6 -30.1 -28.9 -0.8 -1.7 -1.8 -3.2 -2.2 -3.5 -1.5 -1.2 -13.8 -25.5 -13.8 -27.4 0 -0.7 -0.7 -2.9 -1.5 -4.9 -0.8 -1.9 -1.6 -4.8 -1.9 -6.3 -3.1 -19.2 -3.1 -21.4 -3 -244.9 0.1 -198.2 0.3 -224 1.7 -232 1.6 -9.6 4.8 -21.3 7.4 -27.3 0.9 -2 1.8 -4.2 1.9 -4.9 0.1 -0.7 1.2 -2.6 2.3 -4.2 1.2 -1.6 2.1 -3.2 2.1 -3.6 0 -0.9 7.9 -12.3 11.6 -16.6 7.2 -8.4 19.9 -20.3 26.1 -24.2 11.1 -7.1 27.1 -14.9 33.3 -16.2 1.9 -0.4 5.3 -1.3 7.5 -2 2.2 -0.7 10.1 -1.6 17.5 -1.9 18.5 -0.9 271.1 -0.6 283.5 0.3 10.6 0.8 20.6 3 29.1 6.3 2.9 1.1 5.8 2.1 6.5 2.2 3.6 0.6 24.9 13.7 32.8 20.1 6.2 5.1 13.4 12.7 19.3 20.7 6.3 8.4 17.2 28.7 18.2 33.8 0.3 1.4 1.4 5.5 2.5 9.2 2.6 9 3.3 29.4 1.1 30.8 -1.6 1 -7.7 1.5 -17 1.3 -27.2 -0.6 -124.7 -0.1 -129 0.7 -3 0.5 -9.1 1.4 -13.5 2 -8 1.2 -24.8 7.5 -29 11 -1.1 0.9 -3.9 2.8 -6.2 4.3 -5.3 3.4 -11.2 9.4 -17.8 18.3 -5.7 7.5 -7.2 10.5 -11.3 22.4 l-2.7 7.5 -0.5 239.5 -0.5 239.5 -85.5 0.2 c-47 0 -86.8 -0.3 -88.5 -0.7z"/>
 </g>
</svg>