<?xml version="1.0" encoding="utf-8"?>
<!DOCTYPE svg PUBLIC "-//W3C//DTD SVG 1.0//EN" "http://www.w3.org/TR/2001/REC-SVG-20010904/DTD/svg10.dtd">
<svg version="1.0" xmlns="http://www.w3.org/2000/svg" width="1280px" height="720px" viewBox="0 0 1280 720" preserveAspectRatio="xMidYMid meet">
 <g fill="#000000">
  <path d="M227.5 516 c-14.1 -2.8 -27.8 -12.7 -35.9 -26 -3.5 -5.7 -6.6 -15.8 -6.6 -21.5 l0 -3.3 26.3 -0.4 c17.5 -0.2 26.9 -0.7 27.8 -1.4 0.8 -0.6 3.9 -1.9 6.9 -2.9 3 -1 6.2 -2.4 7.1 -3.1 0.8 -0.8 1.9 -1.4 2.3 -1.4 1.3 0 11.1 -7.8 14.6 -11.6 7.1 -7.8 13.1 -18.5 15 -26.9 0.7 -2.7 1.6 -6.4 2.1 -8.1 0.5 -1.7 0.9 -42.2 0.9 -94.3 l0 -91.2 44.8 0.3 c38.4 0.3 45.1 0.5 47.7 1.9 1.7 0.9 5.7 2.9 9 4.5 3.3 1.6 8 4.7 10.4 6.9 4.2 3.9 12.1 14.5 12.1 16.3 0 0.5 0.7 2.3 1.6 4 0.8 1.7 2 6 2.5 9.4 0.6 3.9 0.9 45.5 0.7 107.8 -0.2 83.5 -0.5 102 -1.7 104.5 -0.7 1.7 -1.8 4.1 -2.5 5.5 -2.5 5.9 -9.1 15.3 -12.8 18.5 -3.7 3.1 -8.3 5.6 -20.3 11.2 -3.8 1.7 -8.4 1.8 -76 1.9 -39.6 0.1 -73.8 -0.2 -76 -0.6z"/>
  <path d="M102 461.4 c-17.9 -4.7 -31.2 -17 -38.3 -35.2 l-2.2 -5.7 0 -105 0 -105 2.4 -6.5 c3.1 -8.5 6.2 -13.3 12.5 -19.8 6.6 -6.9 11.3 -10 20.6 -13.7 l7.5 -3 67.1 0.1 67.1 0.1 8.2 2.7 c14.4 4.8 26.4 14.9 32 27 4.2 8.9 5.1 12.2 5.1 18.7 l0 5.8 -31.7 -0.1 c-27.4 -0.1 -32.8 0.1 -39.2 1.7 -11.3 2.7 -17.2 6.5 -23 15 -5.9 8.5 -5.6 2.1 -6.1 117.5 l-0.5 106.5 -38 0.2 c-30.5 0.1 -39.1 -0.1 -43.5 -1.3z"/>
  <path d="M527.2 444 c-20.6 -2.6 -38.3 -13.1 -48.5 -28.8 -9.2 -14.3 -9.7 -18.5 -9.7 -84.7 0 -29.1 0.3 -54.7 0.6 -56.7 l0.7 -3.8 16.8 0 16.9 0 0 56.8 c0.1 41.5 0.4 58 1.3 61.7 2.6 10.6 9.3 18.9 18.7 23.3 4.8 2.3 6.8 2.6 16.5 2.7 9.8 0 11.6 -0.3 16.6 -2.6 7.6 -3.6 12.9 -8.6 16.5 -15.6 l2.9 -5.8 0.3 -60.2 0.3 -60.3 17.4 0 17.5 0 0 60.6 c0 64 -0.1 65.9 -4.7 76.9 -6.9 16.3 -23.4 29.6 -43 34.5 -9.2 2.3 -26.9 3.2 -37.1 2z"/>
  <path d="M643 378.5 l0 -64.5 16.5 0 16.4 0 0.3 11.2 c0.2 7.8 0.7 11.3 1.5 11.6 0.7 0.2 1.6 -0.5 1.9 -1.5 3.1 -9.3 9.1 -16.3 16.9 -19.9 6.6 -3 11.4 -3.8 18 -2.9 l5.5 0.6 0 15 0 14.9 -2.2 -0.4 c-15 -3.1 -27 -0.1 -34.2 8.4 -6.1 7.3 -6 6.9 -6.6 50.7 l-0.5 40.2 -16.7 0.5 -16.8 0.6 0 -64.5z"/>
  <path d="M740 356.4 l0 -86.4 17.5 0 17.5 0 0 72 0 72 31.8 0.2 c17.4 0.2 34.1 0.3 37 0.3 l5.2 -0.1 0 14.1 0 14 -54.5 0.1 -54.5 0.1 0 -86.3z"/>
  <path d="M874.4 441.5 c-0.2 -0.5 -0.3 -29.3 -0.2 -64 l0.3 -63 17.3 -0.3 17.2 -0.2 -0.2 64 -0.3 64.1 -16.9 0.2 c-10.5 0.1 -17 -0.2 -17.2 -0.8z"/>
  <path d="M940 378.6 l0 -64.6 16 0 16 0 0 11.5 c0 10.3 0.2 11.5 1.8 11.5 1.1 0 2.6 -1.8 4.1 -5.1 2.7 -5.5 9.4 -12 15.6 -15 2.2 -1.1 7.7 -2.7 12.3 -3.6 7.6 -1.5 8.8 -1.5 16.6 0 12.4 2.5 19.7 6.7 26.1 15.2 9 11.9 8.8 11 9.2 65.7 l0.4 47.7 -17 0.3 -17 0.3 -0.3 -42.5 c-0.3 -47.9 -0.3 -47.9 -7.9 -54.4 -12.2 -10.4 -31.7 -6.2 -39.5 8.4 -1.7 3.2 -1.9 6.8 -2.2 45.8 l-0.3 42.2 -8.7 0 c-4.8 0 -12.4 0.3 -16.9 0.7 l-8.3 0.6 0 -64.7z"/>
  <path d="M1087 356.3 l0 -86.3 17 0 17 0 0.2 46.8 c0.3 54.1 -0.3 51.7 10.1 39 13.3 -16.3 31.1 -37.4 33.4 -39.5 2.3 -2.2 3.1 -2.3 21.4 -2.3 l19 0 -5.3 6.3 c-5.1 5.9 -6.9 8 -11.9 13.7 -1.2 1.4 -5.4 6.3 -9.3 11 -3.9 4.7 -7.6 9 -8.2 9.5 -4.3 4.1 -12.5 14.7 -12.1 15.7 0.3 0.7 5 7.8 10.5 15.8 5.6 8 15.8 22.9 22.9 33.3 7 10.3 13.4 19.6 14.2 20.7 1.3 2 1.1 2 -18.5 2 l-19.9 0 -17.4 -26 c-9.6 -14.3 -17.8 -26 -18.2 -26 -1 0 -2.9 1.9 -7.3 7.4 l-3.6 4.3 -0.2 20.1 -0.3 20.2 -16.8 0.3 -16.7 0.2 0 -86.2z"/>
  <path d="M881.7 291.4 c-5.3 -3.5 -7.7 -7.8 -7.7 -13.9 0 -9.5 7.6 -16.5 17.9 -16.5 6.2 0 8.9 1 13.4 4.9 8.6 7.6 5.9 22.1 -5 26.7 -5.3 2.3 -14.2 1.7 -18.6 -1.2z"/>
 </g>
</svg>